<svg id="Capa_1" enable-background="new 0 0 512.004 512.004" height="512" viewBox="0 0 512.004 512.004" width="512" xmlns="http://www.w3.org/2000/svg" xmlns:xlink="http://www.w3.org/1999/xlink"><linearGradient id="SVGID_1_" gradientUnits="userSpaceOnUse" x1="0" x2="512.004" y1="256.002" y2="256.002"><stop offset="0" stop-color="#00f2fe"/><stop offset=".0208" stop-color="#03effe"/><stop offset=".2931" stop-color="#24d2fe"/><stop offset=".5538" stop-color="#3cbdfe"/><stop offset=".7956" stop-color="#4ab0fe"/><stop offset="1" stop-color="#4facfe"/></linearGradient><path d="m508.432 126.103c-21.396-30.836-49.579-51.345-76.415-64.944 25.74-5.852 48.658-13.407 68.73-23.169 9.934-4.831 14.069-16.8 9.238-26.733s-16.8-14.069-26.732-9.239c-81.01 39.399-222.561 39.238-418.471 39.019-14.644-.016-29.573-.033-44.782-.033-11.046 0-20 8.954-20 20s8.954 20 20 20c15.194 0 72.905.065 86.584.065 46.351 0 89.485-.183 129.416-1.144v30.863c-13.45 1.075-25.955 3.261-37.482 6.532-1.49.264-2.945.7-4.343 1.293-59.927 18.836-92.175 68.13-92.175 143.391 0 53.031 15.566 113.582 41.641 161.974 30.586 56.765 70.489 88.026 112.359 88.026 30.064 0 59.527-16.327 85.203-47.215 7.062-8.495 5.899-21.104-2.595-28.165-8.495-7.061-21.104-5.898-28.165 2.595-6.555 7.886-15.086 16.567-24.98 23.016 11.798-29.444 20.797-64.216 25.136-82.443 4.619-19.402 18.131-80.2 17.331-123.437 14.028-8.678 27.097-17.916 39.176-27.701 1.921 10.141 2.894 21.259 2.894 33.35 0 34.316-7.563 72.974-21.294 108.851-3.948 10.316 1.214 21.88 11.529 25.828 10.316 3.948 21.88-1.215 25.828-11.529 15.436-40.33 23.937-84.066 23.937-123.15 0-91.223-47.379-144.294-134-151.215v-32.153c22.816-.948 44.457-2.257 64.921-4.059.724.15 1.459.27 2.212.34.868.082 87.261 8.885 132.436 73.989 3.885 5.599 10.114 8.601 16.449 8.601 3.934 0 7.908-1.158 11.384-3.57 9.075-6.298 11.327-18.759 5.03-27.834zm-334.271 47.687c7.017-5.933 15.289-10.766 24.772-14.488 9.184 6.594 24.885 18.235 40.749 31.7 25.956 22.03 37.73 36.473 43.072 44.966-16.245 8.544-32.598 15.831-48.328 22.016-17.257-29.943-52.446-59.155-70.854-73.202 3.184-4.043 6.71-7.712 10.589-10.992zm4.403 230.664c-12.743-23.789-22.754-51.531-29.055-79.431 13.019-2.7 31.38-7.02 52.849-13.519-1.444 11.034-3.923 25.152-7.849 41.599-4.643 19.458-10.162 37.097-15.945 51.351zm-36.564-142.45c0-14.774 1.448-28.102 4.314-39.958 17.838 14.291 38.08 33.082 49.511 49.521-21.308 6.661-39.723 11.109-52.686 13.871-.745-7.985-1.139-15.831-1.139-23.434zm129.686 108.526c-11.393 47.868-24.076 81.679-33.171 97.971-11.421-4.491-22.923-13.226-33.938-25.698 14.738-26.121 24.538-61.927 29.443-82.965 2.495-10.698 8.812-39.678 9.817-62.494 15.136-5.772 29.582-11.99 43.315-18.647-1.947 25.107-7.352 57.741-15.466 91.833zm80.033-181.249c-10.893 9.611-22.49 18.356-34.466 26.309-8.231-13.348-23.415-31.087-51.685-55.083-4.289-3.64-8.547-7.14-12.679-10.458 1.038-.014 2.059-.044 3.111-.044 35.639 0 63.173 8.003 81.839 23.786 5.271 4.456 9.897 9.626 13.88 15.49z" fill="url(#SVGID_1_)"/></svg>