<svg xmlns="http://www.w3.org/2000/svg" width="512" height="512" viewBox="0 0 512 512"><g transform="translate(10,116)translate(67,140)rotate(0)translate(-67,-140) scale(2.47460757156048,2.47460757156048)" opacity="1"><defs class="defs"/><polygon fill="#DCDDDD" points="49.482,113.04 49.265,76.266 32.783,59.27 0.75,58.306 0,59.161 " class="color c1"/><polygon fill="#FFFFFF" points="32.888,59.475 54.15,35.776 51.926,0 0,59.161 " class="color c2"/></g><g transform="translate(129,116)translate(125,138.5)rotate(0)translate(-125,-138.5) scale(2.469965222889662,2.469965222889662)" opacity="1"><defs class="defs"/><polygon fill="#B8C1CB" points="0.883,112.229 101.216,0 66.832,1.251 0.152,74.888 0,74.73 0.218,111.505 " class="color c1"/></g><g transform="translate(295,116)translate(103.5,133.5)rotate(0)translate(-103.5,-133.5) scale(2.4701965417248415,2.4701965417248415)" opacity="1"><defs class="defs"/><g>
    <polygon fill="#DCDDDD" points="29.51,75.308 32.744,108.82 83.799,47.677 51.524,48.535 &#9;" class="color c1"/>
  </g><polygon fill="#FFFFFF" points="83.799,47.677 34.869,0 0,0.556 50.629,49.616 " class="color c2"/></g><g transform="translate(363,162)translate(63,81.5)rotate(0)translate(-63,-81.5) scale(1.503597894962947,1.503597894962947)" opacity="1"><defs class="defs"/><g>
    <polygon fill="#b8c1cb" points="29.51,75.308 32.744,108.82 83.799,47.677 51.524,48.535 &#9;" class="color c1"/>
  </g><polygon fill="#dcdddd" points="83.799,47.677 34.869,0 0,0.556 50.629,49.616 " class="color c2"/></g><g transform="translate(25,173)translate(41.5,86.5)rotate(0)translate(-41.5,-86.5) scale(1.5327793167128347,1.5327793167128347)" opacity="1"><defs class="defs"/><polygon fill="#b8c1cb" points="49.482,113.04 49.265,76.266 32.783,59.27 0.75,58.306 0,59.161 " class="color c1"/><polygon fill="#dcdddd" points="32.888,59.475 54.15,35.776 51.926,0 0,59.161 " class="color c2"/></g></svg>